<?xml version="1.0" encoding="utf-8"?>
<!-- Generator: Adobe Illustrator 20.1.0, SVG Export Plug-In . SVG Version: 6.00 Build 0)  -->
<svg version="1.1" id="Layer_1" xmlns="http://www.w3.org/2000/svg" xmlns:xlink="http://www.w3.org/1999/xlink" x="0px" y="0px"
	 viewBox="0 0 551 147" style="enable-background:new 0 0 551 147;" xml:space="preserve">
<style type="text/css">
	.st0{fill:#FFFFFF;}
	.st1{fill:#FFFFFF;stroke:#FFFFFF;stroke-width:2;stroke-miterlimit:10;}
</style>
<path class="st0" d="M23.4,49.9c0,1.1,0,2.2,0.1,3.3c0.1,1.1,0.3,2.1,0.7,2.9c0.4,0.9,1.1,1.6,1.9,2.1c0.9,0.5,2.1,0.8,3.6,0.8
	c2.3,0,3.9-0.7,4.9-2c0.9-1.3,1.4-3.2,1.4-5.7V25.6h3.4v25.8c0,3.5-0.8,6.1-2.4,7.9c-1.6,1.8-4.1,2.7-7.6,2.7c-2,0-3.6-0.3-4.8-1
	c-1.2-0.7-2.2-1.6-2.8-2.7c-0.7-1.1-1.1-2.4-1.4-3.9c-0.2-1.5-0.3-3-0.3-4.6H23.4z"/>
<path class="st0" d="M58.9,46.2c0.6-0.1,1.2-0.2,2-0.3c0.8-0.1,1.4-0.3,1.9-0.5c0.5-0.2,0.8-0.6,0.9-1.2c0.1-0.5,0.2-1,0.2-1.5
	c0-1.5-0.5-2.8-1.5-3.7c-1-1-2.6-1.5-4.9-1.5c-1,0-2,0.1-2.8,0.3c-0.9,0.2-1.6,0.5-2.2,0.9c-0.6,0.4-1.2,1-1.6,1.8
	c-0.4,0.7-0.7,1.7-0.8,2.8h-3c0.1-1.5,0.4-2.8,1-3.9c0.6-1.1,1.4-1.9,2.3-2.6c0.9-0.7,2-1.2,3.3-1.5c1.2-0.3,2.5-0.5,3.9-0.5
	c1.3,0,2.5,0.1,3.6,0.4c1.1,0.3,2.1,0.7,3,1.3s1.5,1.4,2,2.4c0.5,1,0.7,2.3,0.7,3.8v13.9c0,1.2,0.2,1.9,0.6,2.2
	c0.4,0.3,1.2,0.2,2.5-0.2V61c-0.2,0.1-0.6,0.2-1,0.3c-0.4,0.1-0.9,0.2-1.3,0.2c-0.5,0-0.9,0-1.3-0.1c-0.5-0.1-0.9-0.2-1.2-0.5
	c-0.3-0.2-0.5-0.5-0.7-0.9c-0.2-0.3-0.3-0.7-0.4-1.1C64,58.5,64,58,64,57.6c-1.3,1.4-2.7,2.4-4.3,3.2c-1.6,0.7-3.4,1.1-5.2,1.1
	c-1.1,0-2.2-0.1-3.2-0.4c-1-0.3-2-0.8-2.7-1.4c-0.8-0.6-1.4-1.4-1.9-2.3c-0.5-0.9-0.7-2-0.7-3.2c0-4.3,3-6.9,8.9-7.7L58.9,46.2z
	 M63.9,47.7c-1.3,0.5-2.5,0.9-3.8,1c-1.3,0.2-2.6,0.3-3.9,0.4c-2.3,0.2-4,0.7-5.3,1.5c-1.3,0.9-1.9,2.2-1.9,3.9c0,0.8,0.2,1.5,0.5,2
	c0.3,0.6,0.7,1.1,1.2,1.4c0.5,0.4,1.1,0.7,1.8,0.8c0.7,0.2,1.4,0.3,2,0.3c1.2,0,2.3-0.1,3.5-0.4c1.1-0.3,2.1-0.7,3-1.4
	c0.9-0.6,1.6-1.4,2.1-2.3c0.5-0.9,0.8-2,0.8-3.3V47.7z"/>
<path class="st0" d="M77.2,61.1h-3V35.6h3v3.9h0.1c0.8-1.5,1.8-2.6,3.3-3.4c1.4-0.8,3-1.2,4.6-1.2c1.2,0,2.2,0.1,3,0.4
	c0.8,0.3,1.5,0.6,2.1,1.1c0.6,0.4,1.1,1,1.4,1.6c0.4,0.6,0.7,1.2,1,1.9c0.9-1.7,2-2.9,3.4-3.7c1.4-0.8,3.1-1.2,4.9-1.2
	c1.7,0,3.1,0.3,4.2,0.9c1,0.6,1.8,1.3,2.4,2.3c0.6,0.9,0.9,2,1.1,3.2c0.2,1.2,0.3,2.5,0.3,3.8v16.1h-3V43.5c0-1.8-0.4-3.3-1.2-4.3
	c-0.8-1.1-2.2-1.6-4.3-1.6c-1.1,0-2.1,0.2-3.1,0.7c-1,0.5-1.9,1.2-2.6,2.2c-0.3,0.4-0.6,0.9-0.8,1.5c-0.2,0.6-0.4,1.2-0.5,1.8
	c-0.1,0.6-0.2,1.3-0.3,1.9c0,0.6-0.1,1.2-0.1,1.7v13.8h-3V43.5c0-1.8-0.4-3.3-1.2-4.3c-0.8-1.1-2.2-1.6-4.3-1.6
	c-1.1,0-2.1,0.2-3.1,0.7c-1,0.5-1.9,1.2-2.6,2.2c-0.3,0.4-0.6,0.9-0.8,1.5c-0.2,0.6-0.4,1.2-0.5,1.8c-0.1,0.6-0.2,1.3-0.3,1.9
	c0,0.6-0.1,1.2-0.1,1.7V61.1z"/>
<path class="st0" d="M117.6,49c0,1.4,0.2,2.7,0.5,3.9c0.4,1.2,0.9,2.3,1.6,3.2c0.7,0.9,1.6,1.6,2.7,2.2c1.1,0.5,2.3,0.8,3.8,0.8
	c1.9,0,3.6-0.5,5-1.5c1.4-1,2.3-2.5,2.8-4.3h3.3c-0.4,1.2-0.8,2.3-1.4,3.4c-0.6,1-1.3,1.9-2.2,2.7c-0.9,0.8-1.9,1.4-3.2,1.8
	c-1.2,0.4-2.6,0.6-4.2,0.6c-2,0-3.8-0.3-5.3-1c-1.5-0.7-2.7-1.6-3.7-2.8c-1-1.2-1.7-2.6-2.1-4.2c-0.5-1.6-0.7-3.4-0.7-5.3
	c0-1.9,0.3-3.6,0.8-5.3c0.5-1.6,1.3-3.1,2.3-4.3c1-1.2,2.2-2.2,3.7-2.9c1.4-0.7,3.1-1.1,4.9-1.1c3.5,0,6.3,1.2,8.3,3.6
	c2,2.4,3,5.9,3,10.5H117.6z M134.3,46.6c0-1.3-0.2-2.4-0.5-3.5c-0.3-1.1-0.9-2.1-1.5-2.9c-0.7-0.8-1.5-1.4-2.5-1.9
	c-1-0.5-2.2-0.7-3.5-0.7c-1.3,0-2.5,0.2-3.5,0.7c-1,0.5-1.9,1.2-2.6,2c-0.7,0.8-1.3,1.8-1.7,2.9c-0.4,1.1-0.7,2.2-0.8,3.5H134.3z"/>
<path class="st0" d="M145,53.1c0.5,2.2,1.3,3.8,2.5,4.7c1.2,0.9,2.9,1.4,5.2,1.4c1.1,0,2-0.1,2.8-0.4c0.8-0.3,1.4-0.6,2-1.1
	c0.5-0.4,0.9-0.9,1.2-1.5c0.3-0.6,0.4-1.2,0.4-1.8c0-1.3-0.4-2.2-1.2-2.8c-0.8-0.6-1.8-1.1-3-1.4c-1.2-0.3-2.5-0.6-4-0.9
	c-1.4-0.2-2.7-0.6-4-1.1c-1.2-0.5-2.2-1.2-3-2.1c-0.8-0.9-1.2-2.2-1.2-3.9c0-2.1,0.8-3.9,2.3-5.3c1.6-1.4,3.8-2,6.6-2
	c2.8,0,5,0.6,6.7,1.9c1.7,1.2,2.8,3.3,3.1,6.2h-3c-0.3-2-1-3.4-2.2-4.2c-1.2-0.8-2.8-1.2-4.7-1.2s-3.3,0.4-4.3,1.2
	c-1,0.8-1.5,1.9-1.5,3.2c0,1.2,0.4,2,1.2,2.6c0.8,0.6,1.8,1.1,3,1.5c1.2,0.4,2.5,0.7,4,1c1.4,0.3,2.7,0.7,4,1.3
	c1.2,0.5,2.2,1.3,3,2.2c0.8,0.9,1.2,2.2,1.2,3.9c0,1.2-0.3,2.3-0.8,3.2c-0.5,0.9-1.3,1.7-2.2,2.3c-0.9,0.6-2,1.1-3.3,1.4
	c-1.3,0.3-2.7,0.5-4.2,0.5c-1.5,0-2.9-0.2-4-0.7c-1.2-0.4-2.2-1.1-3-1.9c-0.8-0.8-1.5-1.7-1.9-2.8c-0.5-1.1-0.7-2.2-0.8-3.4H145z"/>
<path class="st0" d="M180.3,25.7h5.4l12.9,35.4h-5.3l-3.7-10.6h-13.9l-3.8,10.6h-4.9L180.3,25.7z M188.2,46.6L182.8,31l-5.7,15.7
	H188.2z"/>
<path class="st0" d="M202.3,35.3h4.1V39c1.2-1.5,2.5-2.6,3.9-3.3c1.4-0.7,2.9-1,4.6-1c3.7,0,6.1,1.3,7.4,3.8c0.7,1.4,1.1,3.4,1.1,6
	v16.6h-4.4V44.9c0-1.6-0.2-2.8-0.7-3.8c-0.8-1.6-2.2-2.4-4.2-2.4c-1,0-1.9,0.1-2.5,0.3c-1.2,0.4-2.2,1.1-3.1,2.1
	c-0.7,0.9-1.2,1.7-1.4,2.6c-0.2,0.9-0.3,2.2-0.3,3.9v13.5h-4.3V35.3z"/>
<path class="st0" d="M243.9,36.1c0.8,0.5,1.6,1.3,2.6,2.5v-13h4.2v35.5h-3.9v-3.6c-1,1.6-2.2,2.7-3.6,3.4c-1.4,0.7-3,1.1-4.7,1.1
	c-2.9,0-5.3-1.2-7.4-3.6c-2.1-2.4-3.1-5.6-3.1-9.7c0-3.8,1-7,2.9-9.8c1.9-2.8,4.6-4.1,8.2-4.1C241,34.9,242.6,35.3,243.9,36.1z
	 M234.2,55.5c1.2,1.9,3,2.8,5.6,2.8c2,0,3.6-0.9,4.9-2.6c1.3-1.7,1.9-4.2,1.9-7.4c0-3.3-0.7-5.7-2-7.2c-1.3-1.6-3-2.4-4.9-2.4
	c-2.2,0-3.9,0.8-5.3,2.5c-1.4,1.7-2,4.1-2,7.4C232.5,51.3,233.1,53.6,234.2,55.5z"/>
<path class="st0" d="M257.3,35.3h4.1v4.5c0.3-0.9,1.2-1.9,2.5-3.2c1.3-1.2,2.8-1.9,4.6-1.9c0.1,0,0.2,0,0.4,0c0.2,0,0.5,0,1,0.1v4.6
	c-0.3,0-0.5-0.1-0.7-0.1c-0.2,0-0.5,0-0.7,0c-2.2,0-3.9,0.7-5,2.1c-1.2,1.4-1.8,3-1.8,4.9v14.9h-4.3V35.3z"/>
<path class="st0" d="M289.6,36c1.7,0.9,3,2,3.9,3.3c0.9,1.3,1.4,2.8,1.7,4.6c0.3,1.2,0.4,3.1,0.4,5.7h-18.8c0.1,2.6,0.7,4.7,1.8,6.3
	c1.1,1.6,2.9,2.4,5.3,2.4c2.3,0,4-0.8,5.4-2.3c0.8-0.9,1.3-1.9,1.6-3h4.3c-0.1,0.9-0.5,2-1.1,3.2c-0.6,1.2-1.3,2.1-2.1,2.9
	c-1.3,1.3-2.9,2.2-4.9,2.6c-1,0.3-2.2,0.4-3.5,0.4c-3.2,0-5.9-1.2-8.1-3.5c-2.2-2.3-3.3-5.6-3.3-9.8c0-4.1,1.1-7.5,3.4-10.1
	c2.2-2.6,5.2-3.9,8.8-3.9C286.1,34.7,287.9,35.2,289.6,36z M291.2,46.2c-0.2-1.9-0.6-3.4-1.2-4.5c-1.2-2.1-3.1-3.1-5.9-3.1
	c-2,0-3.6,0.7-5,2.2c-1.3,1.4-2,3.3-2.1,5.5H291.2z"/>
<path class="st0" d="M303.1,35.3l5,20.4l5-20.4h4.9l5.1,20.2l5.3-20.2h4.3l-7.5,25.8h-4.5l-5.3-20l-5.1,20h-4.5l-7.5-25.8H303.1z"/>
<path class="st0" d="M377.2,26.4c2.5,0.8,4.5,2.3,6.1,4.5c1.2,1.8,2.1,3.7,2.5,5.7c0.4,2.1,0.7,4,0.7,5.9c0,4.7-0.9,8.7-2.8,12
	c-2.6,4.4-6.5,6.6-11.9,6.6h-15.3V25.6h15.3C373.9,25.6,375.7,25.9,377.2,26.4z M363.6,31.8V55h6.9c3.5,0,6-1.7,7.3-5.2
	c0.8-1.9,1.1-4.2,1.1-6.8c0-3.6-0.6-6.4-1.7-8.3c-1.1-1.9-3.4-2.9-6.8-2.9H363.6z"/>
<path class="st0" d="M408.6,35.4c1.8,0.8,3.3,2.1,4.5,3.9c1.1,1.6,1.8,3.4,2.1,5.4c0.2,1.2,0.3,2.9,0.2,5.2h-19.1
	c0.1,2.6,1,4.5,2.7,5.5c1,0.7,2.3,1,3.8,1c1.6,0,2.8-0.4,3.8-1.2c0.5-0.4,1-1,1.4-1.8h7c-0.2,1.6-1,3.1-2.5,4.8
	c-2.4,2.6-5.7,3.8-9.9,3.8c-3.5,0-6.6-1.1-9.3-3.2c-2.7-2.2-4-5.7-4-10.5c0-4.6,1.2-8,3.6-10.5c2.4-2.4,5.5-3.6,9.4-3.6
	C404.7,34.2,406.8,34.6,408.6,35.4z M398.3,41.3c-1,1-1.6,2.4-1.8,4.1h11.8c-0.1-1.8-0.7-3.2-1.8-4.2c-1.1-0.9-2.5-1.4-4.1-1.4
	C400.7,39.8,399.3,40.3,398.3,41.3z"/>
<path class="st0" d="M424.3,52.7c0.1,1.2,0.5,2.1,0.9,2.6c0.9,0.9,2.4,1.4,4.7,1.4c1.4,0,2.4-0.2,3.2-0.6c0.8-0.4,1.2-1,1.2-1.8
	c0-0.8-0.3-1.4-1-1.8c-0.6-0.4-3-1.1-7.2-2.1c-3-0.7-5.1-1.7-6.3-2.8c-1.2-1.1-1.8-2.7-1.8-4.7c0-2.4,1-4.5,2.9-6.3
	c1.9-1.7,4.6-2.6,8.1-2.6c3.3,0,6,0.7,8,2c2.1,1.3,3.3,3.6,3.6,6.8h-6.9c-0.1-0.9-0.3-1.6-0.7-2.1c-0.8-0.9-2-1.4-3.9-1.4
	c-1.5,0-2.6,0.2-3.2,0.7c-0.6,0.5-1,1-1,1.6c0,0.8,0.3,1.4,1,1.7c0.7,0.4,3.1,1,7.2,1.9c2.7,0.6,4.8,1.6,6.2,2.9c1.4,1.3,2,3,2,4.9
	c0,2.6-1,4.7-2.9,6.4c-1.9,1.6-4.9,2.5-9,2.5c-4.1,0-7.2-0.9-9.2-2.6c-2-1.7-3-4-3-6.7H424.3z"/>
<path class="st0" d="M453.5,31.7h-7v-6.3h7V31.7z M446.5,34.9h7v26.3h-7V34.9z"/>
<path class="st0" d="M473.1,34.8c1.7,0.7,3,2,4,3.8v-3.8h6.7v24.9c0,3.4-0.6,5.9-1.7,7.7c-2,3-5.7,4.4-11.3,4.4
	c-3.4,0-6.1-0.7-8.2-2c-2.1-1.3-3.3-3.3-3.5-5.9h7.5c0.2,0.8,0.5,1.4,0.9,1.7c0.7,0.6,2,0.9,3.7,0.9c2.5,0,4.1-0.8,5-2.5
	c0.5-1.1,0.8-2.8,0.8-5.4v-1.7c-0.7,1.1-1.4,2-2.1,2.5c-1.4,1-3.1,1.6-5.3,1.6c-3.4,0-6.1-1.2-8.1-3.6c-2-2.4-3-5.6-3-9.6
	c0-3.9,1-7.2,2.9-9.9c1.9-2.7,4.7-4,8.3-4C471,34.2,472.2,34.4,473.1,34.8z M475.5,53.7c1.1-1.2,1.7-3.1,1.7-5.8
	c0-2.5-0.5-4.4-1.6-5.7s-2.5-2-4.2-2c-2.4,0-4.1,1.1-5,3.4c-0.5,1.2-0.7,2.7-0.7,4.5c0,1.5,0.3,2.9,0.8,4.1c0.9,2.2,2.6,3.3,5,3.3
	C473,55.5,474.4,54.9,475.5,53.7z"/>
<path class="st0" d="M511.5,36.4c1.7,1.4,2.6,3.8,2.6,7.1v17.7h-7v-16c0-1.4-0.2-2.4-0.6-3.2c-0.7-1.4-1.9-2-3.8-2
	c-2.3,0-3.9,1-4.8,3c-0.4,1-0.7,2.4-0.7,4v14.2h-6.9V34.9h6.7v3.8c0.9-1.4,1.7-2.3,2.5-2.9c1.4-1.1,3.2-1.6,5.4-1.6
	C507.6,34.2,509.8,34.9,511.5,36.4z"/>
<line class="st1" x1="344.3" y1="25.7" x2="344.3" y2="62.1"/>
<path class="st0" d="M359.3,91.1v-4.9h1.2v4.9h5.3v1.2h-5.3v4.9h-1.2v-4.9H354v-1.2H359.3z"/>
<path class="st0" d="M379.2,91.9c-0.1-1.5-1-2.3-2.8-2.3c-1.6,0-2.6,0.6-2.6,1.6c0,1,0.5,1.2,3.5,1.9c1.7,0.4,2.5,0.7,3.3,1.3
	c0.7,0.6,1.1,1.4,1.1,2.3c0,2.3-1.8,3.6-4.9,3.6c-3.3,0-5.1-1.5-5.3-4.3h1.9c0.1,1.8,1.2,2.8,3.4,2.8c1.8,0,3-0.8,3-2
	c0-1.2-0.4-1.4-3.9-2.2c-1.4-0.3-2.3-0.7-2.9-1.1c-0.6-0.4-1-1.2-1-2.1c0-2.1,1.8-3.4,4.7-3.4c2.7,0,4.2,1.2,4.5,3.8H379.2z"/>
<path class="st0" d="M393.1,100.1h-1.9v-1.5c-1,1.3-2,1.8-3.7,1.8c-2,0-3.6-1-3.8-2.6c-0.1-0.4-0.1-0.8-0.1-1.7v-7.6h1.9v7.5
	c0,2.1,0.8,3,2.5,3c1,0,2-0.4,2.5-1.1c0.5-0.6,0.7-1.5,0.7-2.8v-6.6h1.9V100.1z"/>
<path class="st0" d="M396,103.9V88.4h1.9v1.5c1-1.3,2.2-1.9,3.8-1.9c3,0,4.9,2.5,4.9,6.2c0,3.7-2,6.1-5,6.1c-1.6,0-2.8-0.6-3.8-2
	v5.5H396z M401.4,98.9c2.1,0,3.4-1.7,3.4-4.6c0-2.9-1.2-4.6-3.3-4.6c-2.3,0-3.6,1.7-3.6,4.5C397.8,97.1,399.2,98.9,401.4,98.9z"/>
<path class="st0" d="M410.4,94.7c0.2,2.7,1.6,4.2,3.9,4.2c1.6,0,2.5-0.7,3-2.3h1.9c-0.8,2.6-2.4,3.8-5.1,3.8c-3.5,0-5.7-2.3-5.7-6.1
	c0-3.7,2.2-6.2,5.5-6.2c2.6,0,4.7,1.6,5.3,4.1c0.2,0.9,0.2,1.2,0.3,2.5H410.4z M413.9,89.6c-2,0-3.3,1.3-3.6,3.6h7.1
	C417.3,91,415.9,89.6,413.9,89.6z"/>
<path class="st0" d="M423.8,90.4c1.1-1.6,2.2-2.4,3.5-2.4c0.3,0,0.5,0,1,0.1V90c-0.5-0.1-0.6-0.1-1-0.1c-1.2,0-2.4,0.8-2.9,1.8
	c-0.4,0.9-0.5,1.1-0.5,2.9v5.5h-2V88.4h1.9V90.4z"/>
<path class="st0" d="M442.4,92.2c-0.4-1.7-1.4-2.6-3.1-2.6c-2.3,0-3.8,1.8-3.8,4.5c0,2.9,1.5,4.7,3.7,4.7c1.8,0,3-1.2,3.1-3.1h1.9
	c-0.3,3-2.1,4.6-5,4.6c-3.4,0-5.6-2.4-5.6-6.2c0-3.6,2.3-6.1,5.7-6.1c2.7,0,4.5,1.5,4.9,4.2H442.4z"/>
<path class="st0" d="M448.6,90.4c1.1-1.6,2.2-2.4,3.5-2.4c0.3,0,0.5,0,1,0.1V90c-0.5-0.1-0.6-0.1-1-0.1c-1.2,0-2.4,0.8-2.9,1.8
	c-0.4,0.9-0.5,1.1-0.5,2.9v5.5h-2V88.4h1.9V90.4z"/>
<path class="st0" d="M455.6,94.7c0.2,2.7,1.6,4.2,3.9,4.2c1.6,0,2.5-0.7,3-2.3h1.9c-0.8,2.6-2.4,3.8-5.1,3.8c-3.5,0-5.7-2.3-5.7-6.1
	c0-3.7,2.2-6.2,5.5-6.2c2.6,0,4.7,1.6,5.3,4.1c0.2,0.9,0.2,1.2,0.3,2.5H455.6z M459.2,89.6c-2,0-3.3,1.3-3.6,3.6h7.1
	C462.5,91,461.1,89.6,459.2,89.6z"/>
<path class="st0" d="M477.2,100.1c-0.5,0.1-0.7,0.1-1,0.1c-1.3,0-1.8-0.5-1.9-1.9c-1,1.4-2.3,2.1-4.2,2.1c-2.4,0-4-1.2-4-3.2
	c0-1.5,0.8-2.6,2.2-3.2c1-0.4,1.4-0.5,4.1-0.9c1.2-0.2,1.6-0.6,1.6-1.4c0-1.4-0.8-2.1-2.4-2.1c-2.2,0-3,0.7-3,2.4h-1.8
	c0-1.4,0.3-2.1,1-2.8c0.9-0.8,2.2-1.2,3.8-1.2c1.4,0,2.6,0.3,3.4,0.9c0.7,0.6,1,1.2,1,2.7v5.5c0,1.3,0.2,1.6,0.9,1.6
	c0.1,0,0.2,0,0.4-0.1V100.1z M471.8,94.5c-2.9,0.6-3.7,1.1-3.7,2.4c0,1.2,0.9,1.9,2.4,1.9c2.1,0,3.5-1.2,3.5-3v-2
	C473.3,94.2,472.9,94.3,471.8,94.5z"/>
<path class="st0" d="M483.4,88.4v1.5h-2.3V97c0,1.3,0.2,1.6,1.2,1.6c0.3,0,0.4,0,0.8-0.1v1.6c-0.5,0.1-0.8,0.2-1.2,0.2
	c-1.9,0-2.7-0.7-2.7-2.7v-7.7h-1.7v-1.5h1.7v-3.8h1.9v3.8H483.4z"/>
<path class="st0" d="M487.1,86.1h-1.9v-2.3h1.9V86.1z M487.1,100.1h-1.9V88.4h1.9V100.1z"/>
<path class="st0" d="M493.5,98.1l3.2-9.7h2l-4.1,11.7h-2.3l-4.1-11.7h2L493.5,98.1z"/>
<path class="st0" d="M501.2,94.7c0.2,2.7,1.6,4.2,3.9,4.2c1.6,0,2.5-0.7,3-2.3h1.9c-0.8,2.6-2.4,3.8-5.1,3.8c-3.5,0-5.7-2.3-5.7-6.1
	c0-3.7,2.2-6.2,5.5-6.2c2.6,0,4.7,1.6,5.3,4.1c0.2,0.9,0.2,1.2,0.3,2.5H501.2z M504.8,89.6c-2,0-3.3,1.3-3.6,3.6h7.1
	C508.1,91,506.8,89.6,504.8,89.6z"/>
<path class="st0" d="M371.4,129.6v-15.5h1.9v1.5c1-1.3,2.2-1.9,3.8-1.9c3,0,4.9,2.5,4.9,6.2c0,3.7-2,6.1-5,6.1c-1.6,0-2.8-0.6-3.8-2
	v5.5H371.4z M376.8,124.6c2.1,0,3.4-1.7,3.4-4.6c0-2.9-1.2-4.6-3.3-4.6c-2.3,0-3.6,1.7-3.6,4.5C373.2,122.9,374.5,124.6,376.8,124.6
	z"/>
<path class="st0" d="M386.3,116.2c1.1-1.6,2.2-2.4,3.5-2.4c0.3,0,0.5,0,1,0.1v1.8c-0.5-0.1-0.6-0.1-1-0.1c-1.2,0-2.4,0.8-2.9,1.8
	c-0.4,0.9-0.5,1.1-0.5,2.9v5.5h-2v-11.7h1.9V116.2z"/>
<path class="st0" d="M402.6,120c0,3.7-2.3,6.1-5.6,6.1c-3.4,0-5.6-2.4-5.6-6.1c0-3.7,2.3-6.2,5.6-6.2
	C400.4,113.8,402.6,116.3,402.6,120z M393.3,120c0,2.8,1.5,4.6,3.7,4.6c2.2,0,3.7-1.8,3.7-4.6c0-2.8-1.5-4.6-3.7-4.6
	C394.7,115.4,393.3,117.2,393.3,120z"/>
<path class="st0" d="M406.9,115.8c1-1.4,2.2-2,3.8-2c3,0,5,2.4,5,6.1c0,3.7-2,6.2-4.9,6.2c-1.6,0-2.8-0.6-3.8-1.9v1.5H405v-16.3h1.9
	V115.8z M410.4,124.6c2.1,0,3.3-1.7,3.3-4.6c0-2.9-1.2-4.6-3.4-4.6c-2.2,0-3.5,1.8-3.5,4.7C406.8,122.9,408.1,124.6,410.4,124.6z"/>
<path class="st0" d="M419.9,125.8H418v-16.3h1.9V125.8z"/>
<path class="st0" d="M424.2,120.4c0.2,2.7,1.6,4.2,3.9,4.2c1.6,0,2.5-0.7,3-2.3h1.9c-0.8,2.6-2.4,3.8-5.1,3.8
	c-3.5,0-5.7-2.3-5.7-6.1c0-3.7,2.2-6.2,5.5-6.2c2.6,0,4.7,1.6,5.3,4.1c0.2,0.9,0.2,1.2,0.3,2.5H424.2z M427.8,115.4
	c-2,0-3.3,1.3-3.6,3.6h7.1C431.1,116.8,429.7,115.4,427.8,115.4z"/>
<path class="st0" d="M437.6,115.8c0.7-1.3,2-2,3.5-2c1.5,0,2.5,0.7,3,2c0.9-1.4,2-2,3.5-2c2.2,0,3.5,1.4,3.5,3.8v8.2h-1.9v-7.6
	c0-2-0.6-2.8-2.1-2.8c-1.7,0-2.8,1.4-2.8,3.9v6.6h-1.9v-7.6c0-1.9-0.7-2.8-2-2.8c-0.9,0-1.8,0.5-2.3,1.4c-0.4,0.7-0.6,1.4-0.6,2.7
	v6.3h-1.9v-11.7h1.9V115.8z"/>
<path class="st0" d="M465.9,117.7c-0.1-1.5-1-2.3-2.8-2.3c-1.6,0-2.6,0.6-2.6,1.6c0,1,0.5,1.2,3.5,1.9c1.7,0.4,2.5,0.7,3.3,1.3
	c0.7,0.6,1.1,1.4,1.1,2.3c0,2.3-1.8,3.6-4.9,3.6c-3.3,0-5.1-1.5-5.3-4.3h1.9c0.1,1.8,1.2,2.8,3.4,2.8c1.8,0,3-0.8,3-2
	c0-1.2-0.4-1.4-3.9-2.2c-1.4-0.3-2.3-0.7-2.9-1.1c-0.6-0.4-1-1.2-1-2.1c0-2.1,1.8-3.4,4.7-3.4c2.7,0,4.2,1.2,4.5,3.8H465.9z"/>
<path class="st0" d="M480.9,120c0,3.7-2.3,6.1-5.6,6.1s-5.6-2.4-5.6-6.1c0-3.7,2.3-6.2,5.6-6.2S480.9,116.3,480.9,120z M471.5,120
	c0,2.8,1.5,4.6,3.7,4.6s3.7-1.8,3.7-4.6c0-2.8-1.5-4.6-3.7-4.6S471.5,117.2,471.5,120z"/>
<path class="st0" d="M485.1,125.8h-1.9v-16.3h1.9V125.8z"/>
<path class="st0" d="M491.5,123.9l3.2-9.7h2l-4.1,11.7h-2.3l-4.1-11.7h2L491.5,123.9z"/>
<path class="st0" d="M499.8,111.8h-1.9v-2.3h1.9V111.8z M499.8,125.8h-1.9v-11.7h1.9V125.8z"/>
<path class="st0" d="M504.7,115.9c0.9-1.3,2.3-2.1,3.9-2.1c2.3,0,3.8,1.5,3.8,4v8h-1.9v-7.3c0-2.1-0.8-3.1-2.6-3.1
	c-1.5,0-2.9,1-3.2,2.4c0,0.3-0.1,0.7-0.1,1.3v6.7h-1.9v-11.7h1.9V115.9z"/>
<path class="st0" d="M525.1,123.8v0.8c0,2.2-0.2,3.1-1,4c-0.9,1-2.2,1.4-4.3,1.4c-3.1,0-4.5-1-4.7-3.2h1.8c0.1,1.2,0.9,1.6,2.9,1.6
	c1.9,0,2.9-0.6,3.2-1.8c0.1-0.4,0.1-0.6,0.1-1.4v-1.2c-1.2,1.3-2,1.7-3.4,1.7c-3,0-5.1-2.3-5.1-5.8c0-3.6,2-6,5.1-6
	c1.5,0,2.4,0.5,3.5,1.8v-1.4h1.9V123.8z M520.1,124.1c2.2,0,3.3-1.5,3.3-4.3c0-1.7-0.3-2.6-1-3.4c-0.6-0.6-1.5-1-2.4-1
	c-2,0-3.4,1.7-3.4,4.4C516.6,122.5,517.9,124.1,520.1,124.1z"/>
</svg>
